<svg width="17" height="16" viewBox="0 0 17 16" fill="none" xmlns="http://www.w3.org/2000/svg">
<path fill-rule="evenodd" clip-rule="evenodd" d="M2.58162 3.55075V12.3046C2.4831 13.7043 3.87058 14.9903 5.24122 14.9903H13.9193C14.2698 14.9903 14.5088 14.7154 14.5088 14.336V13.7632C14.5088 13.5929 14.0982 13.438 14.0982 13.3142C14.0982 13.2538 14.0285 12.8463 14.0285 12.4162C14.0285 11.9641 14.0982 11.4885 14.0982 11.433C14.0982 11.3246 14.5088 11.0846 14.5088 10.8988V1.96209C14.5088 1.46918 14.325 1.00977 13.6673 1.00977H5.03738C3.67567 1.00977 2.58162 2.25389 2.58162 3.55075ZM11.4938 4.08795H5.73558C5.62814 4.08795 5.54105 4.17505 5.54105 4.28248V4.73573C5.54105 4.84317 5.62814 4.93027 5.73558 4.93027H11.4938C11.6013 4.93027 11.6884 4.84317 11.6884 4.73573V4.28248C11.6884 4.17505 11.6013 4.08795 11.4938 4.08795ZM11.4938 6.05101H5.73558C5.62814 6.05101 5.54105 6.1381 5.54105 6.24554V6.69879C5.54105 6.80623 5.62814 6.89332 5.73558 6.89332H11.4938C11.6013 6.89332 11.6884 6.80623 11.6884 6.69879V6.24554C11.6884 6.1381 11.6013 6.05101 11.4938 6.05101ZM12.8252 11.0315C12.8252 11.0315 12.6781 11.4331 12.6781 11.8953C12.6781 12.3576 12.8252 12.9355 12.8252 12.9355H5.03739C3.92484 12.9355 3.75628 11.0315 5.03739 11.0315H12.8252Z" fill="black"/>
</svg>
